<svg enable-background="new 0 0 32 32" viewBox="0 0 32 32" xmlns="http://www.w3.org/2000/svg"><g fill="none" fill-rule="evenodd"><path d="M25.5 13.048c-.41 0-.806.06-1.185.163-.466-3.25-3.256-5.75-6.637-5.75-2.938 0-5.43 1.89-6.34 4.52l-.402-.02c-2.1 0-3.86 1.447-4.345 3.398l-.12-.013c-1.836 0-3.325 1.49-3.325 3.328 0 1.825 1.468 3.302 3.285 3.324L6.422 22H25.37l-.006-.01.137.008c2.474 0 4.48-2.004 4.48-4.476s-2.005-4.474-4.477-4.474z" fill-opacity=".6" fill="#447EFF"/><path d="M19.43 15l-7.49 8.997 4.204.347L12.617 32l7.458-8.995-4.06-.41L19.428 15z" fill="#FF9C00"/><path d="M24.855 28.018l.005-4.078-3.218 2.81.016.005c-.19.167-.353.374-.47.617-.458.96-.05 2.11.913 2.57.966.462 2.118.06 2.578-.9.158-.33.214-.684.18-1.024zm-16 0l.004-4.078-3.22 2.81.015.005c-.19.167-.353.374-.47.617-.457.96-.05 2.11.914 2.57.963.462 2.116.06 2.576-.9.157-.33.212-.684.177-1.024z" fill="#005DFF"/></g></svg>
