<svg enable-background="new 0 0 30 30" viewBox="0 0 30 30" xmlns="http://www.w3.org/2000/svg"><path d="M28.753 4.412l-.002-.01s.07.005.004.01zm-3.14 2.507h-.64c.013.147.023.297.023.45 0 1.947-1.02 3.654-2.553 4.625.05.274.08.555.08.843 0 1.61-.812 3.03-2.048 3.878.335.726.632 1.533.632 2.385 0 3.157-2.663 5.87-5.82 5.87-1.94 0-3.675-1.08-4.72-2.594.08 2.903 1.204 4.626 1.204 4.626.316.616.07 1.37-.546 1.684-.617.314-1.37.068-1.685-.55 0 0-1.2-2.544-1.446-5.372-.57.238-1.196.377-1.864.377-2.766 0-5.008-2.24-5.008-5.006 0-1.94 1.107-3.62 2.72-4.45-.15-.492-.233-1.015-.233-1.557 0-2.68 1.995-4.89 4.583-5.234.47-2.14 2.375-3.742 4.656-3.742.877 0 1.7.243 2.405.657 1.005-1.174 2.495-1.92 4.16-1.92 2.375 0 4.39 1.513 5.152 3.625.4-.568 1.21-1.092 2.866-1.092.858 0 1.136-.005 1.218-.01.016.09.378 2.506-3.137 2.506zM19.52 3.74c-1.614 0-2.966 1.063-3.437 2.52h-.678c-.533-.783-1.43-1.297-2.45-1.297-1.635 0-2.96 1.326-2.96 2.963 0 .36.072.702.19 1.022-.37-.14-.768-.225-1.188-.225-1.883 0-3.41 1.526-3.41 3.41 0 1.077.51 2.026 1.29 2.65v.296c-.208-.045-.423-.07-.645-.07-1.73 0-3.13 1.4-3.13 3.13s1.4 3.13 3.13 3.13c.747 0 1.426-.27 1.96-.71.576-2.66 2.718-5.127 2.718-5.127.43-.54 1.218-.63 1.76-.2.54.43.63 1.22.2 1.76 0 0-.965.8-1.65 2.218.06 2.204 1.855 3.973 4.072 3.973 2.254 0 4.08-1.826 4.08-4.08 0-1.488-.804-2.777-1.992-3.49.146.023.294.045.45.045 1.553 0 2.813-1.26 2.813-2.816 0-.727-.282-1.384-.736-1.884 1.82-.195 3.244-1.718 3.244-3.59 0-2.004-1.624-3.63-3.63-3.63zm-4.53 8.804c-1.203 0-1.304.005-1.31.006 0-.003-.387-2.503 3.23-2.503.86 0 1.137-.005 1.22-.01.014.09.376 2.507-3.14 2.507zm3.138-2.516s.07.005.002.01l-.002-.01zm7.533 6.27c.858 0 1.137-.006 1.22-.012.013.09.375 2.508-3.14 2.508-1.204 0-1.305.005-1.31.006 0-.003-.388-2.503 3.23-2.503zm1.22-.01l-.003-.01s.07.005.002.01z" fill="#004381" fill-rule="evenodd"/></svg>
